# Blender 3.5.1
# www.blender.org
mtllib BombMesh.mtl
o Plane
v 0.029376 0.000000 0.411581
v 0.724925 0.000000 0.412741
v 0.035875 0.000000 -0.407720
v 0.720757 0.000000 -0.409365
v 0.215397 0.000000 -0.529042
v 0.518711 0.000000 -0.520250
v 0.828619 0.000000 -0.207704
v 0.826421 0.000000 0.264850
v 0.509920 0.000000 0.526404
v 0.213199 0.000000 0.522008
v -0.078322 0.000000 0.229153
v -0.082813 0.000000 -0.180893
v -0.872214 0.000000 0.065627
v -0.874068 0.000000 -0.059568
vn -0.0000 1.0000 -0.0000
vt 0.000000 0.000000
vt 1.000000 0.000000
vt 0.000000 0.000000
vt 0.000000 0.000000
vt 0.000000 1.000000
vt 1.000000 1.000000
vt 0.000000 0.000000
vt 0.000000 0.000000
vt 0.000000 0.000000
vt 0.000000 0.000000
vt 0.000000 0.000000
vt 0.000000 0.000000
vt 0.000000 0.000000
vt 0.000000 0.000000
vt 0.000000 1.000000
vt 0.000000 0.000000
vt 0.000000 1.000000
s 0
f 2/2/1 3/5/1 1/1/1
f 3/4/1 6/9/1 5/8/1
f 2/3/1 7/10/1 4/7/1
f 1/1/1 9/12/1 2/3/1
f 1/1/1 12/15/1 11/14/1
f 12/15/1 13/16/1 11/14/1
f 2/2/1 4/6/1 3/5/1
f 3/4/1 4/7/1 6/9/1
f 2/3/1 8/11/1 7/10/1
f 1/1/1 10/13/1 9/12/1
f 1/1/1 3/5/1 12/15/1
f 12/15/1 14/17/1 13/16/1
