# Blender 3.5.1
# www.blender.org
mtllib BossCollider.mtl
o Plane
v -0.471640 0.000000 0.285312
v 0.220522 0.000000 0.767608
v -0.481703 0.000000 -0.288899
v 0.208776 0.000000 -0.767980
v -0.216947 0.000000 0.462781
v -0.218214 0.000000 -0.471718
v 0.024542 0.000000 0.732301
v -0.532210 0.000000 0.380450
v -0.347474 0.000000 0.515944
v -0.857829 0.000000 0.564882
v -0.764673 0.000000 0.621516
v -0.631785 0.000000 0.409225
v -0.494414 0.000000 0.629273
v -0.349412 0.000000 0.556771
v 0.069448 0.000000 0.662340
v -0.040945 0.000000 0.659213
v -0.131908 0.000000 0.659799
v -0.564493 0.000000 0.167020
v -0.572011 0.000000 -0.155344
v -0.601258 0.000000 -0.002886
v 0.028358 0.000000 -0.735530
v -0.037380 0.000000 -0.665196
v 0.006488 0.000000 -0.627625
v -0.133180 0.000000 -0.663029
v -0.514773 0.000000 -0.361400
v -0.328132 0.000000 -0.476205
v -0.276027 0.000000 -0.488401
v -0.857837 0.000000 -0.549567
v -0.352737 0.000000 -0.548337
v -0.625915 0.000000 -0.399423
v -0.764804 0.000000 -0.614996
v -0.432479 0.000000 -0.600987
v -0.850318 0.000000 -0.570153
v -0.499146 0.000000 -0.620759
v 0.358035 0.000000 0.851502
v 0.351165 0.000000 -0.850924
v 0.215050 0.000000 -0.129733
v 0.354075 0.000000 -0.129733
v 0.522758 0.000000 0.799829
v 0.355079 0.000000 0.119048
v 0.215656 0.000000 0.117351
v 0.438258 0.000000 0.851145
v 0.414006 0.000000 -0.014536
v 0.508392 0.000000 -0.844741
v 0.536918 0.000000 -0.326709
v 0.383091 0.000000 -0.863387
v 0.412682 0.000000 -0.152405
v 0.628373 0.000000 -0.681330
v 0.634081 0.000000 -0.378971
v 0.768965 0.000000 -0.676178
v 0.766575 0.000000 -0.377498
v 0.632647 0.000000 -0.454933
v 0.767172 0.000000 -0.452090
v 0.899969 0.000000 -0.543265
v 0.355079 0.000000 0.119048
v 0.414006 0.000000 -0.014536
v 0.527528 0.000000 0.365047
v 0.519228 0.000000 0.828327
v 0.442675 0.000000 0.178366
v 0.629490 0.000000 0.682056
v 0.667384 0.000000 0.417309
v 0.768168 0.000000 0.674989
v 0.723915 0.000000 0.421726
v 0.856986 0.000000 0.552663
vn -0.0000 1.0000 -0.0000
vt 0.000000 0.000000
vt 0.000000 0.000000
vt 1.000000 0.000000
vt 0.000000 1.000000
vt 0.000000 0.000000
vt 1.000000 1.000000
vt 0.000000 0.000000
vt 0.367967 0.000000
vt 0.000000 0.000000
vt 0.381603 1.000000
vt 0.000000 0.000000
vt 0.000000 0.000000
vt 0.367967 0.000000
vt 0.000000 0.000000
vt 0.000000 0.000000
vt 0.367967 0.000000
vt 0.000000 0.000000
vt 0.000000 0.000000
vt 0.000000 0.000000
vt 0.000000 0.000000
vt 0.000000 0.000000
vt 0.781736 0.000000
vt 0.000000 0.000000
vt 0.000000 0.000000
vt 0.000000 0.000000
vt 0.000000 1.000000
vt 0.000000 0.000000
vt 0.000000 0.000000
vt 0.000000 0.000000
vt 0.000000 0.000000
vt 0.000000 0.000000
vt 0.707033 1.000000
vt 0.000000 0.000000
vt 0.000000 1.000000
vt 0.000000 0.000000
vt 0.000000 0.000000
vt 0.381603 1.000000
vt 0.000000 0.000000
vt 0.000000 1.000000
vt 0.000000 0.000000
vt 0.381603 1.000000
vt 0.000000 0.000000
vt 0.000000 1.000000
vt 0.000000 0.000000
vt 0.381603 1.000000
vt 0.000000 0.000000
vt 0.000000 0.000000
vt 0.000000 0.000000
vt 1.000000 0.000000
vt 0.000000 0.000000
vt 1.000000 1.000000
vt 0.000000 0.000000
vt 0.975936 0.585742
vt 1.000000 0.584363
vt 1.000000 0.576375
vt 0.000000 0.000000
vt 0.000000 0.000000
vt 1.000000 0.000000
vt 1.000000 0.430241
vt 0.000000 0.000000
vt 0.971018 0.420907
vt 1.000000 0.422764
vt 0.000000 0.000000
vt 0.000000 0.000000
vt 0.000000 0.000000
vt 1.000000 1.000000
vt 0.000000 0.000000
vt 1.000000 0.576375
vt 0.000000 0.000000
vt 0.000000 0.000000
vt 1.000000 1.000000
vt 1.000000 0.576375
vt 1.000000 1.000000
vt 0.000000 0.000000
vt 1.000000 0.576375
vt 1.000000 0.682802
vt 0.000000 0.000000
vt 1.000000 0.682171
vt 0.000000 0.000000
vt 0.000000 0.000000
vt 0.000000 0.000000
vt 0.000000 0.000000
vt 1.000000 0.430241
vt 0.000000 0.000000
vt 0.000000 0.000000
vt 1.000000 0.000000
vt 1.000000 0.430241
vt 1.000000 0.000000
vt 0.000000 0.000000
vt 1.000000 0.430241
vt 0.000000 0.000000
vt 0.000000 0.000000
s 0
f 1/1/1 5/8/1 6/10/1 3/4/1
f 2/2/1 15/21/1 16/23/1 7/11/1
f 6/10/1 5/8/1 41/62/1 37/53/1
f 5/8/1 1/1/1 8/12/1 9/13/1
f 9/13/1 8/12/1 10/15/1 11/16/1
f 10/15/1 8/12/1 12/18/1
f 9/14/1 11/17/1 13/19/1 14/20/1
f 1/1/1 3/4/1 19/26/1 18/25/1
f 16/23/1 15/21/1 5/7/1 17/24/1
f 18/25/1 19/27/1 20/28/1
f 6/9/1 23/31/1 22/30/1 24/33/1
f 3/4/1 6/10/1 26/37/1 25/34/1
f 22/30/1 23/31/1 4/5/1 21/29/1
f 26/36/1 6/9/1 27/38/1
f 25/34/1 26/37/1 29/41/1 28/39/1
f 25/35/1 28/40/1 30/42/1
f 28/39/1 29/41/1 32/45/1 31/43/1
f 28/40/1 31/44/1 33/47/1
f 31/44/1 32/46/1 34/48/1
f 4/6/1 37/54/1 38/55/1 36/51/1
f 38/55/1 37/54/1 41/62/1 40/59/1
f 37/54/1 4/6/1 23/32/1 6/10/1
f 41/61/1 5/8/1 15/22/1 2/3/1
f 40/59/1 41/62/1 2/3/1 35/49/1
f 38/56/1 40/60/1 43/64/1
f 36/51/1 38/55/1 45/68/1 44/66/1
f 36/52/1 44/65/1 46/69/1
f 45/67/1 38/56/1 47/70/1
f 44/66/1 45/68/1 49/72/1 52/76/1 48/71/1
f 48/71/1 52/76/1 53/78/1 50/73/1
f 50/74/1 53/77/1 54/79/1
f 53/78/1 52/76/1 49/72/1 51/75/1
f 43/64/1 40/60/1 55/80/1 56/81/1
f 40/59/1 35/49/1 39/58/1 57/83/1
f 39/57/1 35/50/1 42/63/1 58/84/1
f 40/60/1 57/82/1 59/85/1
f 57/83/1 39/58/1 60/86/1 61/87/1
f 61/87/1 60/86/1 62/88/1 63/90/1
f 63/91/1 62/89/1 64/92/1
